<svg width="21" height="21" viewBox="0 0 21 21" fill="none" xmlns="http://www.w3.org/2000/svg">
<path d="M13 10.5C13 11.163 12.7366 11.7989 12.2678 12.2678C11.7989 12.7366 11.163 13 10.5 13C9.83696 13 9.20107 12.7366 8.73223 12.2678C8.26339 11.7989 8 11.163 8 10.5C8 9.83696 8.26339 9.20107 8.73223 8.73223C9.20107 8.26339 9.83696 8 10.5 8C11.163 8 11.7989 8.26339 12.2678 8.73223C12.7366 9.20107 13 9.83696 13 10.5Z" stroke="black" stroke-opacity="0.5" stroke-width="2" stroke-linecap="round" stroke-linejoin="round"/>
<path d="M2.54834 10.5001C3.61001 7.11925 6.76917 4.66675 10.5 4.66675C14.2317 4.66675 17.39 7.11925 18.4517 10.5001C17.39 13.8809 14.2317 16.3334 10.5 16.3334C6.76917 16.3334 3.61001 13.8809 2.54834 10.5001Z" stroke="black" stroke-opacity="0.5" stroke-width="2" stroke-linecap="round" stroke-linejoin="round"/>
</svg>
