<svg width="36" height="36" viewBox="0 0 36 36" fill="none" xmlns="http://www.w3.org/2000/svg">
<path d="M33 19.875V6.75C33 5.75544 32.6049 4.80161 31.9016 4.09835C31.1984 3.39509 30.2446 3 29.25 3H6.75C5.75544 3 4.80161 3.39509 4.09835 4.09835C3.39509 4.80161 3 5.75544 3 6.75V19.875M33 19.875V29.25C33 30.2446 32.6049 31.1984 31.9016 31.9016C31.1984 32.6049 30.2446 33 29.25 33H6.75C5.75544 33 4.80161 32.6049 4.09835 31.9016C3.39509 31.1984 3 30.2446 3 29.25V19.875M33 19.875H28.1512C27.654 19.8751 27.1772 20.0727 26.8256 20.4244L22.2994 24.9506C21.9478 25.3023 21.471 25.4999 20.9738 25.5H15.0262C14.529 25.4999 14.0522 25.3023 13.7006 24.9506L9.17438 20.4244C8.82283 20.0727 8.34599 19.8751 7.84875 19.875H3" stroke="black" stroke-width="5" stroke-linecap="round" stroke-linejoin="round"/>
</svg>
